<svg width="59" height="20" viewBox="0 0 59 20" fill="none" xmlns="http://www.w3.org/2000/svg">
<path d="M18.0741 13.5664H32.349C32.0058 17.1701 28.9365 19.9994 25.2109 19.9994C21.4854 19.9994 18.4167 17.1701 18.0735 13.5664H18.0741ZM7.88967 5.8245V19.9674C11.5252 19.6273 14.3817 16.5859 14.3817 12.8957C14.3817 9.20543 11.5252 6.1652 7.88967 5.82509V5.8245ZM25.2115 5.7925C21.4866 5.7925 18.4173 8.62298 18.0741 12.2267H32.349C32.0058 8.62298 28.9365 5.7925 25.2109 5.7925H25.2115ZM0.679688 10.9546V20H6.49433V0H0.679688V10.9546ZM52.5057 0V19.9994H58.3203V0H52.5057ZM44.6599 12.8962C44.6599 13.3454 44.7041 13.7838 44.785 14.2099C45.3688 17.2851 47.9588 19.6682 51.1526 19.9668V5.8245C47.5171 6.1646 44.6605 9.20602 44.6605 12.8962H44.6599ZM35.2896 19.9994H41.1042V0H35.2896V19.9994Z" fill="white"/>
</svg>